<svg width="48" height="48" viewBox="0 0 48 48" fill="none" xmlns="http://www.w3.org/2000/svg">
  <ellipse cx="24" cy="24" rx="24" ry="24" fill="white" />
  <svg
    x="12"
    y="12"
    width="24"
    height="24"
    viewBox="0 0 14 8"
    fill="#4DC274"
    xmlns="http://www.w3.org/2000/svg"
  >
    <path d="M7.71007 5.40011C7.61711 5.49384 7.50651 5.56823 7.38465 5.619C7.26279 5.66977 7.13208 5.69591 7.00007 5.69591C6.86806 5.69591 6.73735 5.66977 6.61549 5.619C6.49363 5.56823 6.38303 5.49384 6.29007 5.40011L1.71006 0.810109C1.6171 0.716381 1.5065 0.641986 1.38464 0.591217C1.26278 0.540448 1.13207 0.514311 1.00006 0.514311C0.868049 0.514311 0.737344 0.540448 0.615484 0.591217C0.493625 0.641986 0.383024 0.716381 0.29006 0.810109C0.103809 0.997472 -0.000732422 1.25092 -0.000732422 1.51511C-0.000732422 1.7793 0.103809 2.03275 0.29006 2.22011L4.88007 6.81011C5.44257 7.37191 6.20507 7.68747 7.00007 7.68747C7.79507 7.68747 8.55757 7.37191 9.12007 6.81011L13.7101 2.22011C13.8948 2.03385 13.999 1.78245 14.0001 1.52011C14.0008 1.3885 13.9756 1.25804 13.9259 1.1362C13.8761 1.01436 13.8028 0.903549 13.7101 0.810109C13.6171 0.716381 13.5065 0.641986 13.3847 0.591217C13.2628 0.540448 13.1321 0.514311 13.0001 0.514311C12.8681 0.514311 12.7374 0.540448 12.6155 0.591217C12.4936 0.641986 12.383 0.716381 12.2901 0.810109L7.71007 5.40011Z" />
  </svg>
</svg>
