<svg width="48" height="48" viewBox="0 0 48 48" fill="none" xmlns="http://www.w3.org/2000/svg">
  <ellipse cx="24" cy="24" rx="24" ry="24" transform="matrix(0 1 1 0 0 0)" fill="white"/>
  <path d="M27.7101 29.4001C27.6171 29.4938 27.5065 29.5682 27.3847 29.619C27.2628 29.6698 27.1321 29.6959 27.0001 29.6959C26.8681 29.6959 26.7374 29.6698 26.6155 29.619C26.4936 29.5682 26.383 29.4938 26.2901 29.4001L21.7101 24.8101C21.6171 24.7164 21.5065 24.642 21.3847 24.5912C21.2628 24.5404 21.1321 24.5143 21.0001 24.5143C20.868 24.5143 20.7373 24.5404 20.6155 24.5912C20.4936 24.642 20.383 24.7164 20.2901 24.8101C20.1038 24.9975 19.9993 25.2509 19.9993 25.5151C19.9993 25.7793 20.1038 26.0327 20.2901 26.2201L24.8801 30.8101C25.4426 31.3719 26.2051 31.6875 27.0001 31.6875C27.7951 31.6875 28.5576 31.3719 29.1201 30.8101L33.7101 26.2201C33.8948 26.0339 33.999 25.7824 34.0001 25.5201C34.0008 25.3885 33.9756 25.258 33.9259 25.1362C33.8761 25.0144 33.8028 24.9035 33.7101 24.8101C33.6171 24.7164 33.5065 24.642 33.3847 24.5912C33.2628 24.5404 33.1321 24.5143 33.0001 24.5143C32.8681 24.5143 32.7374 24.5404 32.6155 24.5912C32.4936 24.642 32.383 24.7164 32.2901 24.8101L27.7101 29.4001Z" fill="#4DC274"/>
</svg>
