<svg xmlns="http://www.w3.org/2000/svg" aria-hidden="true" style="position:absolute;width:0;height:0;overflow:hidden">
  <defs>
    <symbol id="icon-facebook" viewBox="0 0 32 32">
      <path d="M19.52 4.64h.96v3.6h-1.2c-.48 0-.96 0-1.2.24s-.24.48-.24 1.04v1.28h2.64v3.04h-2.64v13.2h-4.08V13.76H11.6v-3.04h2.16V9.68c0-1.76.24-3.04.72-3.6.72-1.04 2.16-1.52 4.32-1.52.24.08.48.08.72.08z"/>
    </symbol>
    <symbol id="icon-youtube" viewBox="0 0 32 32">
      <path d="M24.24 6c-1.36-.08-4.16-.16-8.4-.16h-.56c-4.08 0-6.8.08-8.16.24-1.84.16-3.12.64-3.84 1.28-.64.56-1.12 1.6-1.28 2.96-.08.88-.16 2.72-.16 5.52v.4c0 2.64.08 4.48.24 5.36.24 1.28.64 2.24 1.44 2.8.8.64 2.16 1.04 4.08 1.2 1.36.08 4.16.16 8.4.16h.56c4.08 0 6.8-.08 8.16-.24 1.84-.16 3.12-.64 3.84-1.28.64-.56 1.12-1.6 1.28-2.96.08-.88.16-2.72.16-5.52v-.4c0-2.64-.08-4.48-.24-5.36-.24-1.28-.64-2.24-1.44-2.8-.8-.64-2.16-1.04-4.08-1.2zm-3.12 9.84-8.8 5.28V10.56l8.8 5.28z"/>
    </symbol>
    <symbol id="icon-instagram" viewBox="0 0 32 32">
      <path d="M28.718 10.756c-.016-1.074-.215-2.14-.596-3.145a6.5468 6.5468 0 0 0-3.743-3.737c-.994-.373-2.044-.573-3.108-.596-1.368-.061-1.801-.078-5.273-.078s-3.916 0-5.274.078c-1.062.023-2.113.223-3.106.596a6.5412 6.5412 0 0 0-3.743 3.737 9.2883 9.2883 0 0 0-.596 3.101c-.061 1.367-.08 1.8-.08 5.265s0 3.909.08 5.265c.021 1.062.222 2.109.596 3.104a6.548 6.548 0 0 0 3.744 3.735c.989.386 2.04.605 3.106.639 1.369.061 1.803.08 5.274.08s3.916 0 5.274-.08a9.3622 9.3622 0 0 0 3.108-.595 6.5554 6.5554 0 0 0 3.743-3.737c.374-.994.574-2.041.596-3.104.061-1.365.08-1.798.08-5.265-.003-3.466-.003-3.906-.082-5.264zM15.99 22.531c-3.631 0-6.572-2.936-6.572-6.561s2.941-6.561 6.572-6.561c3.628 0 6.572 2.936 6.572 6.561s-2.944 6.561-6.572 6.561zm6.834-11.835c-.849 0-1.532-.684-1.532-1.53s.684-1.53 1.532-1.53c.846 0 1.531.684 1.531 1.53s-.685 1.53-1.531 1.53z"/>
      <path d="M15.992 19.976c2.211 0 4.004-1.793 4.004-4.004s-1.793-4.004-4.004-4.004c-2.211 0-4.004 1.793-4.004 4.004s1.793 4.004 4.004 4.004z"/>
    </symbol>
    <symbol id="menu" viewBox="0 0 28 28">
      <path d="M3.5 14H24.5M3.5 7H24.5M3.5 21H24.5" stroke="#111111" stroke-width="2" stroke-linecap="round" stroke-linejoin="round"/>
    </symbol>
    <symbol id="icon-close" viewBox="0 0 32 32">
      <path stroke-linecap="round" stroke-linejoin="round" stroke-width="2.4" d="M24 8 8 24M8 8l16 16"/>
    </symbol>
    <symbol id="icon-check" viewBox="0 0 32 32">
      <path stroke-linecap="round" stroke-linejoin="round" stroke-width="3.2" d="M26.667 8 12 22.667 5.333 16"/>
    </symbol>
    <symbol id="icon-scroll" viewBox="0 0 32 32">
      <path d="M16.947 17.867c-.124.125-.271.224-.434.292s-.337.103-.513.103-.35-.035-.513-.103-.31-.167-.434-.292l-6.107-6.12c-.124-.125-.271-.224-.434-.292s-.337-.103-.513-.103-.35.035-.513.103-.31.167-.434.292c-.248.25-.388.588-.388.94s.139.69.388.94l6.12 6.12c.75.749 1.767 1.17 2.827 1.17s2.077-.421 2.827-1.17l6.12-6.12c.246-.248.385-.584.387-.933.001-.175-.033-.349-.099-.512s-.164-.31-.288-.435c-.124-.125-.271-.224-.434-.292s-.337-.103-.513-.103-.35.035-.513.103-.31.167-.434.292l-6.107 6.12z"/>
    </symbol>
    <symbol id="icon-scroll-down" viewBox="0 0 32 32">
      <path  d="M16.947 17.867c-0.124 0.125-0.271 0.224-0.434 0.292s-0.337 0.103-0.513 0.103c-0.176 0-0.35-0.035-0.513-0.103s-0.31-0.167-0.434-0.292l-6.107-6.12c-0.124-0.125-0.271-0.224-0.434-0.292s-0.337-0.103-0.513-0.103c-0.176 0-0.35 0.035-0.513 0.103s-0.31 0.167-0.434 0.292c-0.248 0.25-0.388 0.588-0.388 0.94s0.139 0.69 0.388 0.94l6.12 6.12c0.75 0.749 1.767 1.17 2.827 1.17s2.077-0.421 2.827-1.17l6.12-6.12c0.246-0.248 0.385-0.584 0.387-0.933 0.001-0.175-0.033-0.349-0.099-0.512s-0.164-0.31-0.288-0.435c-0.124-0.125-0.271-0.224-0.434-0.292s-0.337-0.103-0.513-0.103c-0.176 0-0.35 0.035-0.513 0.103s-0.31 0.167-0.434 0.292l-6.107 6.12z"></path>
    </symbol>
    <symbol id="icon-error" viewBox="0 0 32 32">
      <path d="M15 0c1.385 0 2.714.177 3.984.531s2.469.854 3.594 1.5 2.135 1.427 3.031 2.344 1.677 1.932 2.344 3.047S29.125 9.729 29.469 11c.344 1.271.521 2.604.531 4 0 1.385-.177 2.714-.531 3.984s-.854 2.469-1.5 3.594-1.427 2.135-2.344 3.031-1.932 1.677-3.047 2.344-2.307 1.172-3.578 1.516c-1.271.344-2.604.521-4 .531-1.385 0-2.714-.177-3.984-.531s-2.469-.854-3.594-1.5-2.135-1.427-3.031-2.344-1.677-1.932-2.344-3.047S.875 20.271.531 19C.187 17.729.01 16.396 0 15c0-1.385.177-2.714.531-3.984s.854-2.469 1.5-3.594 1.427-2.135 2.344-3.031 1.932-1.677 3.047-2.344C8.537 1.38 9.729.875 11 .531S13.604.01 15 0zm0 28c1.187 0 2.333-.156 3.437-.469s2.141-.75 3.109-1.312c.969-.563 1.849-1.24 2.641-2.031s1.469-1.667 2.031-2.625 1-1.995 1.312-3.109.469-2.266.469-3.453-.156-2.333-.469-3.438c-.312-1.104-.75-2.141-1.312-3.109s-1.24-1.849-2.031-2.641c-.792-.792-1.667-1.469-2.625-2.031s-1.995-1-3.109-1.313C17.338 2.156 16.187 2 15 2c-1.198 0-2.349.156-3.453.469s-2.135.75-3.094 1.313c-.958.563-1.839 1.24-2.641 2.031S4.333 7.48 3.781 8.438s-.99 1.995-1.313 3.109-.479 2.266-.469 3.453c0 1.187.156 2.333.469 3.437s.75 2.141 1.313 3.109c.563.969 1.24 1.849 2.031 2.641s1.667 1.469 2.625 2.031 1.995 1 3.109 1.312 2.266.469 3.453.469zM14 8h2v10h-2V8zm0 12h2v2h-2v-2z"/>
    </symbol>
  </defs>
</svg>